<svg version="1.1" xmlns="http://www.w3.org/2000/svg" viewBox="0 0 378 378"  preserveAspectRatio="xMinYMin meet" role="img" aria-labelledby="qrcode-description"><rect width="100%" height="100%" fill="#ffffff"/><description id="qrcode-description">QR: https://alunbusiness.md/bancodobrasil/votar/?p=p2-gargalo</description><rect width="100%" height="100%" fill="white" cx="0" cy="0"/><path d="M24,24l10,0 0,10 -10,0 0,-10z M34,24l10,0 0,10 -10,0 0,-10z M44,24l10,0 0,10 -10,0 0,-10z M54,24l10,0 0,10 -10,0 0,-10z M64,24l10,0 0,10 -10,0 0,-10z M74,24l10,0 0,10 -10,0 0,-10z M84,24l10,0 0,10 -10,0 0,-10z M124,24l10,0 0,10 -10,0 0,-10z M164,24l10,0 0,10 -10,0 0,-10z M174,24l10,0 0,10 -10,0 0,-10z M204,24l10,0 0,10 -10,0 0,-10z M214,24l10,0 0,10 -10,0 0,-10z M234,24l10,0 0,10 -10,0 0,-10z M254,24l10,0 0,10 -10,0 0,-10z M284,24l10,0 0,10 -10,0 0,-10z M294,24l10,0 0,10 -10,0 0,-10z M304,24l10,0 0,10 -10,0 0,-10z M314,24l10,0 0,10 -10,0 0,-10z M324,24l10,0 0,10 -10,0 0,-10z M334,24l10,0 0,10 -10,0 0,-10z M344,24l10,0 0,10 -10,0 0,-10z M24,34l10,0 0,10 -10,0 0,-10z M84,34l10,0 0,10 -10,0 0,-10z M144,34l10,0 0,10 -10,0 0,-10z M174,34l10,0 0,10 -10,0 0,-10z M254,34l10,0 0,10 -10,0 0,-10z M284,34l10,0 0,10 -10,0 0,-10z M344,34l10,0 0,10 -10,0 0,-10z M24,44l10,0 0,10 -10,0 0,-10z M44,44l10,0 0,10 -10,0 0,-10z M54,44l10,0 0,10 -10,0 0,-10z M64,44l10,0 0,10 -10,0 0,-10z M84,44l10,0 0,10 -10,0 0,-10z M124,44l10,0 0,10 -10,0 0,-10z M134,44l10,0 0,10 -10,0 0,-10z M164,44l10,0 0,10 -10,0 0,-10z M174,44l10,0 0,10 -10,0 0,-10z M194,44l10,0 0,10 -10,0 0,-10z M204,44l10,0 0,10 -10,0 0,-10z M214,44l10,0 0,10 -10,0 0,-10z M224,44l10,0 0,10 -10,0 0,-10z M264,44l10,0 0,10 -10,0 0,-10z M284,44l10,0 0,10 -10,0 0,-10z M304,44l10,0 0,10 -10,0 0,-10z M314,44l10,0 0,10 -10,0 0,-10z M324,44l10,0 0,10 -10,0 0,-10z M344,44l10,0 0,10 -10,0 0,-10z M24,54l10,0 0,10 -10,0 0,-10z M44,54l10,0 0,10 -10,0 0,-10z M54,54l10,0 0,10 -10,0 0,-10z M64,54l10,0 0,10 -10,0 0,-10z M84,54l10,0 0,10 -10,0 0,-10z M144,54l10,0 0,10 -10,0 0,-10z M154,54l10,0 0,10 -10,0 0,-10z M204,54l10,0 0,10 -10,0 0,-10z M224,54l10,0 0,10 -10,0 0,-10z M244,54l10,0 0,10 -10,0 0,-10z M254,54l10,0 0,10 -10,0 0,-10z M264,54l10,0 0,10 -10,0 0,-10z M284,54l10,0 0,10 -10,0 0,-10z M304,54l10,0 0,10 -10,0 0,-10z M314,54l10,0 0,10 -10,0 0,-10z M324,54l10,0 0,10 -10,0 0,-10z M344,54l10,0 0,10 -10,0 0,-10z M24,64l10,0 0,10 -10,0 0,-10z M44,64l10,0 0,10 -10,0 0,-10z M54,64l10,0 0,10 -10,0 0,-10z M64,64l10,0 0,10 -10,0 0,-10z M84,64l10,0 0,10 -10,0 0,-10z M114,64l10,0 0,10 -10,0 0,-10z M154,64l10,0 0,10 -10,0 0,-10z M184,64l10,0 0,10 -10,0 0,-10z M194,64l10,0 0,10 -10,0 0,-10z M204,64l10,0 0,10 -10,0 0,-10z M244,64l10,0 0,10 -10,0 0,-10z M254,64l10,0 0,10 -10,0 0,-10z M264,64l10,0 0,10 -10,0 0,-10z M284,64l10,0 0,10 -10,0 0,-10z M304,64l10,0 0,10 -10,0 0,-10z M314,64l10,0 0,10 -10,0 0,-10z M324,64l10,0 0,10 -10,0 0,-10z M344,64l10,0 0,10 -10,0 0,-10z M24,74l10,0 0,10 -10,0 0,-10z M84,74l10,0 0,10 -10,0 0,-10z M104,74l10,0 0,10 -10,0 0,-10z M114,74l10,0 0,10 -10,0 0,-10z M134,74l10,0 0,10 -10,0 0,-10z M154,74l10,0 0,10 -10,0 0,-10z M204,74l10,0 0,10 -10,0 0,-10z M214,74l10,0 0,10 -10,0 0,-10z M234,74l10,0 0,10 -10,0 0,-10z M244,74l10,0 0,10 -10,0 0,-10z M264,74l10,0 0,10 -10,0 0,-10z M284,74l10,0 0,10 -10,0 0,-10z M344,74l10,0 0,10 -10,0 0,-10z M24,84l10,0 0,10 -10,0 0,-10z M34,84l10,0 0,10 -10,0 0,-10z M44,84l10,0 0,10 -10,0 0,-10z M54,84l10,0 0,10 -10,0 0,-10z M64,84l10,0 0,10 -10,0 0,-10z M74,84l10,0 0,10 -10,0 0,-10z M84,84l10,0 0,10 -10,0 0,-10z M104,84l10,0 0,10 -10,0 0,-10z M124,84l10,0 0,10 -10,0 0,-10z M144,84l10,0 0,10 -10,0 0,-10z M164,84l10,0 0,10 -10,0 0,-10z M184,84l10,0 0,10 -10,0 0,-10z M204,84l10,0 0,10 -10,0 0,-10z M224,84l10,0 0,10 -10,0 0,-10z M244,84l10,0 0,10 -10,0 0,-10z M264,84l10,0 0,10 -10,0 0,-10z M284,84l10,0 0,10 -10,0 0,-10z M294,84l10,0 0,10 -10,0 0,-10z M304,84l10,0 0,10 -10,0 0,-10z M314,84l10,0 0,10 -10,0 0,-10z M324,84l10,0 0,10 -10,0 0,-10z M334,84l10,0 0,10 -10,0 0,-10z M344,84l10,0 0,10 -10,0 0,-10z M114,94l10,0 0,10 -10,0 0,-10z M144,94l10,0 0,10 -10,0 0,-10z M194,94l10,0 0,10 -10,0 0,-10z M204,94l10,0 0,10 -10,0 0,-10z M234,94l10,0 0,10 -10,0 0,-10z M264,94l10,0 0,10 -10,0 0,-10z M24,104l10,0 0,10 -10,0 0,-10z M54,104l10,0 0,10 -10,0 0,-10z M74,104l10,0 0,10 -10,0 0,-10z M84,104l10,0 0,10 -10,0 0,-10z M104,104l10,0 0,10 -10,0 0,-10z M124,104l10,0 0,10 -10,0 0,-10z M134,104l10,0 0,10 -10,0 0,-10z M154,104l10,0 0,10 -10,0 0,-10z M164,104l10,0 0,10 -10,0 0,-10z M174,104l10,0 0,10 -10,0 0,-10z M184,104l10,0 0,10 -10,0 0,-10z M234,104l10,0 0,10 -10,0 0,-10z M264,104l10,0 0,10 -10,0 0,-10z M274,104l10,0 0,10 -10,0 0,-10z M294,104l10,0 0,10 -10,0 0,-10z M24,114l10,0 0,10 -10,0 0,-10z M54,114l10,0 0,10 -10,0 0,-10z M64,114l10,0 0,10 -10,0 0,-10z M74,114l10,0 0,10 -10,0 0,-10z M114,114l10,0 0,10 -10,0 0,-10z M124,114l10,0 0,10 -10,0 0,-10z M144,114l10,0 0,10 -10,0 0,-10z M184,114l10,0 0,10 -10,0 0,-10z M194,114l10,0 0,10 -10,0 0,-10z M234,114l10,0 0,10 -10,0 0,-10z M244,114l10,0 0,10 -10,0 0,-10z M264,114l10,0 0,10 -10,0 0,-10z M274,114l10,0 0,10 -10,0 0,-10z M284,114l10,0 0,10 -10,0 0,-10z M294,114l10,0 0,10 -10,0 0,-10z M334,114l10,0 0,10 -10,0 0,-10z M344,114l10,0 0,10 -10,0 0,-10z M34,124l10,0 0,10 -10,0 0,-10z M64,124l10,0 0,10 -10,0 0,-10z M84,124l10,0 0,10 -10,0 0,-10z M184,124l10,0 0,10 -10,0 0,-10z M194,124l10,0 0,10 -10,0 0,-10z M214,124l10,0 0,10 -10,0 0,-10z M264,124l10,0 0,10 -10,0 0,-10z M284,124l10,0 0,10 -10,0 0,-10z M294,124l10,0 0,10 -10,0 0,-10z M304,124l10,0 0,10 -10,0 0,-10z M324,124l10,0 0,10 -10,0 0,-10z M344,124l10,0 0,10 -10,0 0,-10z M34,134l10,0 0,10 -10,0 0,-10z M94,134l10,0 0,10 -10,0 0,-10z M114,134l10,0 0,10 -10,0 0,-10z M124,134l10,0 0,10 -10,0 0,-10z M144,134l10,0 0,10 -10,0 0,-10z M164,134l10,0 0,10 -10,0 0,-10z M204,134l10,0 0,10 -10,0 0,-10z M224,134l10,0 0,10 -10,0 0,-10z M234,134l10,0 0,10 -10,0 0,-10z M254,134l10,0 0,10 -10,0 0,-10z M264,134l10,0 0,10 -10,0 0,-10z M274,134l10,0 0,10 -10,0 0,-10z M304,134l10,0 0,10 -10,0 0,-10z M314,134l10,0 0,10 -10,0 0,-10z M334,134l10,0 0,10 -10,0 0,-10z M44,144l10,0 0,10 -10,0 0,-10z M64,144l10,0 0,10 -10,0 0,-10z M74,144l10,0 0,10 -10,0 0,-10z M84,144l10,0 0,10 -10,0 0,-10z M104,144l10,0 0,10 -10,0 0,-10z M114,144l10,0 0,10 -10,0 0,-10z M144,144l10,0 0,10 -10,0 0,-10z M194,144l10,0 0,10 -10,0 0,-10z M224,144l10,0 0,10 -10,0 0,-10z M234,144l10,0 0,10 -10,0 0,-10z M244,144l10,0 0,10 -10,0 0,-10z M254,144l10,0 0,10 -10,0 0,-10z M264,144l10,0 0,10 -10,0 0,-10z M274,144l10,0 0,10 -10,0 0,-10z M284,144l10,0 0,10 -10,0 0,-10z M294,144l10,0 0,10 -10,0 0,-10z M314,144l10,0 0,10 -10,0 0,-10z M344,144l10,0 0,10 -10,0 0,-10z M24,154l10,0 0,10 -10,0 0,-10z M44,154l10,0 0,10 -10,0 0,-10z M54,154l10,0 0,10 -10,0 0,-10z M64,154l10,0 0,10 -10,0 0,-10z M74,154l10,0 0,10 -10,0 0,-10z M94,154l10,0 0,10 -10,0 0,-10z M114,154l10,0 0,10 -10,0 0,-10z M174,154l10,0 0,10 -10,0 0,-10z M184,154l10,0 0,10 -10,0 0,-10z M194,154l10,0 0,10 -10,0 0,-10z M214,154l10,0 0,10 -10,0 0,-10z M224,154l10,0 0,10 -10,0 0,-10z M234,154l10,0 0,10 -10,0 0,-10z M284,154l10,0 0,10 -10,0 0,-10z M304,154l10,0 0,10 -10,0 0,-10z M314,154l10,0 0,10 -10,0 0,-10z M334,154l10,0 0,10 -10,0 0,-10z M344,154l10,0 0,10 -10,0 0,-10z M44,164l10,0 0,10 -10,0 0,-10z M74,164l10,0 0,10 -10,0 0,-10z M84,164l10,0 0,10 -10,0 0,-10z M114,164l10,0 0,10 -10,0 0,-10z M144,164l10,0 0,10 -10,0 0,-10z M154,164l10,0 0,10 -10,0 0,-10z M164,164l10,0 0,10 -10,0 0,-10z M194,164l10,0 0,10 -10,0 0,-10z M224,164l10,0 0,10 -10,0 0,-10z M234,164l10,0 0,10 -10,0 0,-10z M244,164l10,0 0,10 -10,0 0,-10z M254,164l10,0 0,10 -10,0 0,-10z M264,164l10,0 0,10 -10,0 0,-10z M274,164l10,0 0,10 -10,0 0,-10z M284,164l10,0 0,10 -10,0 0,-10z M294,164l10,0 0,10 -10,0 0,-10z M324,164l10,0 0,10 -10,0 0,-10z M334,164l10,0 0,10 -10,0 0,-10z M34,174l10,0 0,10 -10,0 0,-10z M44,174l10,0 0,10 -10,0 0,-10z M54,174l10,0 0,10 -10,0 0,-10z M64,174l10,0 0,10 -10,0 0,-10z M74,174l10,0 0,10 -10,0 0,-10z M94,174l10,0 0,10 -10,0 0,-10z M104,174l10,0 0,10 -10,0 0,-10z M114,174l10,0 0,10 -10,0 0,-10z M154,174l10,0 0,10 -10,0 0,-10z M174,174l10,0 0,10 -10,0 0,-10z M194,174l10,0 0,10 -10,0 0,-10z M224,174l10,0 0,10 -10,0 0,-10z M234,174l10,0 0,10 -10,0 0,-10z M244,174l10,0 0,10 -10,0 0,-10z M284,174l10,0 0,10 -10,0 0,-10z M304,174l10,0 0,10 -10,0 0,-10z M334,174l10,0 0,10 -10,0 0,-10z M24,184l10,0 0,10 -10,0 0,-10z M44,184l10,0 0,10 -10,0 0,-10z M54,184l10,0 0,10 -10,0 0,-10z M84,184l10,0 0,10 -10,0 0,-10z M104,184l10,0 0,10 -10,0 0,-10z M114,184l10,0 0,10 -10,0 0,-10z M124,184l10,0 0,10 -10,0 0,-10z M144,184l10,0 0,10 -10,0 0,-10z M154,184l10,0 0,10 -10,0 0,-10z M164,184l10,0 0,10 -10,0 0,-10z M194,184l10,0 0,10 -10,0 0,-10z M204,184l10,0 0,10 -10,0 0,-10z M214,184l10,0 0,10 -10,0 0,-10z M234,184l10,0 0,10 -10,0 0,-10z M244,184l10,0 0,10 -10,0 0,-10z M264,184l10,0 0,10 -10,0 0,-10z M284,184l10,0 0,10 -10,0 0,-10z M304,184l10,0 0,10 -10,0 0,-10z M314,184l10,0 0,10 -10,0 0,-10z M334,184l10,0 0,10 -10,0 0,-10z M24,194l10,0 0,10 -10,0 0,-10z M44,194l10,0 0,10 -10,0 0,-10z M74,194l10,0 0,10 -10,0 0,-10z M94,194l10,0 0,10 -10,0 0,-10z M114,194l10,0 0,10 -10,0 0,-10z M164,194l10,0 0,10 -10,0 0,-10z M184,194l10,0 0,10 -10,0 0,-10z M254,194l10,0 0,10 -10,0 0,-10z M264,194l10,0 0,10 -10,0 0,-10z M274,194l10,0 0,10 -10,0 0,-10z M294,194l10,0 0,10 -10,0 0,-10z M314,194l10,0 0,10 -10,0 0,-10z M24,204l10,0 0,10 -10,0 0,-10z M44,204l10,0 0,10 -10,0 0,-10z M84,204l10,0 0,10 -10,0 0,-10z M124,204l10,0 0,10 -10,0 0,-10z M164,204l10,0 0,10 -10,0 0,-10z M184,204l10,0 0,10 -10,0 0,-10z M204,204l10,0 0,10 -10,0 0,-10z M274,204l10,0 0,10 -10,0 0,-10z M324,204l10,0 0,10 -10,0 0,-10z M334,204l10,0 0,10 -10,0 0,-10z M344,204l10,0 0,10 -10,0 0,-10z M34,214l10,0 0,10 -10,0 0,-10z M44,214l10,0 0,10 -10,0 0,-10z M54,214l10,0 0,10 -10,0 0,-10z M64,214l10,0 0,10 -10,0 0,-10z M114,214l10,0 0,10 -10,0 0,-10z M134,214l10,0 0,10 -10,0 0,-10z M144,214l10,0 0,10 -10,0 0,-10z M154,214l10,0 0,10 -10,0 0,-10z M164,214l10,0 0,10 -10,0 0,-10z M194,214l10,0 0,10 -10,0 0,-10z M204,214l10,0 0,10 -10,0 0,-10z M214,214l10,0 0,10 -10,0 0,-10z M234,214l10,0 0,10 -10,0 0,-10z M254,214l10,0 0,10 -10,0 0,-10z M264,214l10,0 0,10 -10,0 0,-10z M274,214l10,0 0,10 -10,0 0,-10z M284,214l10,0 0,10 -10,0 0,-10z M294,214l10,0 0,10 -10,0 0,-10z M344,214l10,0 0,10 -10,0 0,-10z M24,224l10,0 0,10 -10,0 0,-10z M44,224l10,0 0,10 -10,0 0,-10z M84,224l10,0 0,10 -10,0 0,-10z M94,224l10,0 0,10 -10,0 0,-10z M114,224l10,0 0,10 -10,0 0,-10z M124,224l10,0 0,10 -10,0 0,-10z M134,224l10,0 0,10 -10,0 0,-10z M154,224l10,0 0,10 -10,0 0,-10z M164,224l10,0 0,10 -10,0 0,-10z M174,224l10,0 0,10 -10,0 0,-10z M184,224l10,0 0,10 -10,0 0,-10z M234,224l10,0 0,10 -10,0 0,-10z M254,224l10,0 0,10 -10,0 0,-10z M274,224l10,0 0,10 -10,0 0,-10z M74,234l10,0 0,10 -10,0 0,-10z M104,234l10,0 0,10 -10,0 0,-10z M134,234l10,0 0,10 -10,0 0,-10z M154,234l10,0 0,10 -10,0 0,-10z M164,234l10,0 0,10 -10,0 0,-10z M174,234l10,0 0,10 -10,0 0,-10z M184,234l10,0 0,10 -10,0 0,-10z M224,234l10,0 0,10 -10,0 0,-10z M244,234l10,0 0,10 -10,0 0,-10z M264,234l10,0 0,10 -10,0 0,-10z M284,234l10,0 0,10 -10,0 0,-10z M294,234l10,0 0,10 -10,0 0,-10z M314,234l10,0 0,10 -10,0 0,-10z M334,234l10,0 0,10 -10,0 0,-10z M344,234l10,0 0,10 -10,0 0,-10z M24,244l10,0 0,10 -10,0 0,-10z M34,244l10,0 0,10 -10,0 0,-10z M44,244l10,0 0,10 -10,0 0,-10z M84,244l10,0 0,10 -10,0 0,-10z M94,244l10,0 0,10 -10,0 0,-10z M114,244l10,0 0,10 -10,0 0,-10z M134,244l10,0 0,10 -10,0 0,-10z M164,244l10,0 0,10 -10,0 0,-10z M174,244l10,0 0,10 -10,0 0,-10z M194,244l10,0 0,10 -10,0 0,-10z M214,244l10,0 0,10 -10,0 0,-10z M274,244l10,0 0,10 -10,0 0,-10z M284,244l10,0 0,10 -10,0 0,-10z M314,244l10,0 0,10 -10,0 0,-10z M344,244l10,0 0,10 -10,0 0,-10z M34,254l10,0 0,10 -10,0 0,-10z M64,254l10,0 0,10 -10,0 0,-10z M94,254l10,0 0,10 -10,0 0,-10z M114,254l10,0 0,10 -10,0 0,-10z M124,254l10,0 0,10 -10,0 0,-10z M144,254l10,0 0,10 -10,0 0,-10z M154,254l10,0 0,10 -10,0 0,-10z M164,254l10,0 0,10 -10,0 0,-10z M184,254l10,0 0,10 -10,0 0,-10z M204,254l10,0 0,10 -10,0 0,-10z M214,254l10,0 0,10 -10,0 0,-10z M234,254l10,0 0,10 -10,0 0,-10z M244,254l10,0 0,10 -10,0 0,-10z M284,254l10,0 0,10 -10,0 0,-10z M304,254l10,0 0,10 -10,0 0,-10z M314,254l10,0 0,10 -10,0 0,-10z M344,254l10,0 0,10 -10,0 0,-10z M24,264l10,0 0,10 -10,0 0,-10z M54,264l10,0 0,10 -10,0 0,-10z M64,264l10,0 0,10 -10,0 0,-10z M84,264l10,0 0,10 -10,0 0,-10z M94,264l10,0 0,10 -10,0 0,-10z M104,264l10,0 0,10 -10,0 0,-10z M114,264l10,0 0,10 -10,0 0,-10z M124,264l10,0 0,10 -10,0 0,-10z M144,264l10,0 0,10 -10,0 0,-10z M164,264l10,0 0,10 -10,0 0,-10z M174,264l10,0 0,10 -10,0 0,-10z M184,264l10,0 0,10 -10,0 0,-10z M194,264l10,0 0,10 -10,0 0,-10z M214,264l10,0 0,10 -10,0 0,-10z M234,264l10,0 0,10 -10,0 0,-10z M264,264l10,0 0,10 -10,0 0,-10z M274,264l10,0 0,10 -10,0 0,-10z M284,264l10,0 0,10 -10,0 0,-10z M294,264l10,0 0,10 -10,0 0,-10z M304,264l10,0 0,10 -10,0 0,-10z M104,274l10,0 0,10 -10,0 0,-10z M124,274l10,0 0,10 -10,0 0,-10z M144,274l10,0 0,10 -10,0 0,-10z M154,274l10,0 0,10 -10,0 0,-10z M164,274l10,0 0,10 -10,0 0,-10z M214,274l10,0 0,10 -10,0 0,-10z M224,274l10,0 0,10 -10,0 0,-10z M234,274l10,0 0,10 -10,0 0,-10z M244,274l10,0 0,10 -10,0 0,-10z M264,274l10,0 0,10 -10,0 0,-10z M304,274l10,0 0,10 -10,0 0,-10z M314,274l10,0 0,10 -10,0 0,-10z M344,274l10,0 0,10 -10,0 0,-10z M24,284l10,0 0,10 -10,0 0,-10z M34,284l10,0 0,10 -10,0 0,-10z M44,284l10,0 0,10 -10,0 0,-10z M54,284l10,0 0,10 -10,0 0,-10z M64,284l10,0 0,10 -10,0 0,-10z M74,284l10,0 0,10 -10,0 0,-10z M84,284l10,0 0,10 -10,0 0,-10z M144,284l10,0 0,10 -10,0 0,-10z M154,284l10,0 0,10 -10,0 0,-10z M194,284l10,0 0,10 -10,0 0,-10z M224,284l10,0 0,10 -10,0 0,-10z M244,284l10,0 0,10 -10,0 0,-10z M264,284l10,0 0,10 -10,0 0,-10z M284,284l10,0 0,10 -10,0 0,-10z M304,284l10,0 0,10 -10,0 0,-10z M314,284l10,0 0,10 -10,0 0,-10z M324,284l10,0 0,10 -10,0 0,-10z M334,284l10,0 0,10 -10,0 0,-10z M24,294l10,0 0,10 -10,0 0,-10z M84,294l10,0 0,10 -10,0 0,-10z M104,294l10,0 0,10 -10,0 0,-10z M114,294l10,0 0,10 -10,0 0,-10z M124,294l10,0 0,10 -10,0 0,-10z M134,294l10,0 0,10 -10,0 0,-10z M144,294l10,0 0,10 -10,0 0,-10z M164,294l10,0 0,10 -10,0 0,-10z M174,294l10,0 0,10 -10,0 0,-10z M194,294l10,0 0,10 -10,0 0,-10z M214,294l10,0 0,10 -10,0 0,-10z M224,294l10,0 0,10 -10,0 0,-10z M234,294l10,0 0,10 -10,0 0,-10z M264,294l10,0 0,10 -10,0 0,-10z M304,294l10,0 0,10 -10,0 0,-10z M344,294l10,0 0,10 -10,0 0,-10z M24,304l10,0 0,10 -10,0 0,-10z M44,304l10,0 0,10 -10,0 0,-10z M54,304l10,0 0,10 -10,0 0,-10z M64,304l10,0 0,10 -10,0 0,-10z M84,304l10,0 0,10 -10,0 0,-10z M114,304l10,0 0,10 -10,0 0,-10z M134,304l10,0 0,10 -10,0 0,-10z M194,304l10,0 0,10 -10,0 0,-10z M214,304l10,0 0,10 -10,0 0,-10z M224,304l10,0 0,10 -10,0 0,-10z M234,304l10,0 0,10 -10,0 0,-10z M264,304l10,0 0,10 -10,0 0,-10z M274,304l10,0 0,10 -10,0 0,-10z M284,304l10,0 0,10 -10,0 0,-10z M294,304l10,0 0,10 -10,0 0,-10z M304,304l10,0 0,10 -10,0 0,-10z M314,304l10,0 0,10 -10,0 0,-10z M24,314l10,0 0,10 -10,0 0,-10z M44,314l10,0 0,10 -10,0 0,-10z M54,314l10,0 0,10 -10,0 0,-10z M64,314l10,0 0,10 -10,0 0,-10z M84,314l10,0 0,10 -10,0 0,-10z M104,314l10,0 0,10 -10,0 0,-10z M114,314l10,0 0,10 -10,0 0,-10z M144,314l10,0 0,10 -10,0 0,-10z M174,314l10,0 0,10 -10,0 0,-10z M224,314l10,0 0,10 -10,0 0,-10z M244,314l10,0 0,10 -10,0 0,-10z M284,314l10,0 0,10 -10,0 0,-10z M304,314l10,0 0,10 -10,0 0,-10z M324,314l10,0 0,10 -10,0 0,-10z M24,324l10,0 0,10 -10,0 0,-10z M44,324l10,0 0,10 -10,0 0,-10z M54,324l10,0 0,10 -10,0 0,-10z M64,324l10,0 0,10 -10,0 0,-10z M84,324l10,0 0,10 -10,0 0,-10z M114,324l10,0 0,10 -10,0 0,-10z M134,324l10,0 0,10 -10,0 0,-10z M154,324l10,0 0,10 -10,0 0,-10z M194,324l10,0 0,10 -10,0 0,-10z M204,324l10,0 0,10 -10,0 0,-10z M224,324l10,0 0,10 -10,0 0,-10z M234,324l10,0 0,10 -10,0 0,-10z M254,324l10,0 0,10 -10,0 0,-10z M304,324l10,0 0,10 -10,0 0,-10z M314,324l10,0 0,10 -10,0 0,-10z M324,324l10,0 0,10 -10,0 0,-10z M344,324l10,0 0,10 -10,0 0,-10z M24,334l10,0 0,10 -10,0 0,-10z M84,334l10,0 0,10 -10,0 0,-10z M154,334l10,0 0,10 -10,0 0,-10z M164,334l10,0 0,10 -10,0 0,-10z M194,334l10,0 0,10 -10,0 0,-10z M214,334l10,0 0,10 -10,0 0,-10z M234,334l10,0 0,10 -10,0 0,-10z M244,334l10,0 0,10 -10,0 0,-10z M254,334l10,0 0,10 -10,0 0,-10z M264,334l10,0 0,10 -10,0 0,-10z M274,334l10,0 0,10 -10,0 0,-10z M24,344l10,0 0,10 -10,0 0,-10z M34,344l10,0 0,10 -10,0 0,-10z M44,344l10,0 0,10 -10,0 0,-10z M54,344l10,0 0,10 -10,0 0,-10z M64,344l10,0 0,10 -10,0 0,-10z M74,344l10,0 0,10 -10,0 0,-10z M84,344l10,0 0,10 -10,0 0,-10z M104,344l10,0 0,10 -10,0 0,-10z M124,344l10,0 0,10 -10,0 0,-10z M154,344l10,0 0,10 -10,0 0,-10z M164,344l10,0 0,10 -10,0 0,-10z M174,344l10,0 0,10 -10,0 0,-10z M184,344l10,0 0,10 -10,0 0,-10z M234,344l10,0 0,10 -10,0 0,-10z M264,344l10,0 0,10 -10,0 0,-10z M304,344l10,0 0,10 -10,0 0,-10z M314,344l10,0 0,10 -10,0 0,-10z M334,344l10,0 0,10 -10,0 0,-10z " stroke="transparent" fill="black"/></svg>