<svg version="1.1" xmlns="http://www.w3.org/2000/svg" viewBox="0 0 378 378"  preserveAspectRatio="xMinYMin meet" role="img" aria-labelledby="qrcode-description"><rect width="100%" height="100%" fill="#ffffff"/><description id="qrcode-description">QR: https://alunbusiness.md/bancodobrasil/votar/?p=p1-motivo</description><rect width="100%" height="100%" fill="white" cx="0" cy="0"/><path d="M24,24l10,0 0,10 -10,0 0,-10z M34,24l10,0 0,10 -10,0 0,-10z M44,24l10,0 0,10 -10,0 0,-10z M54,24l10,0 0,10 -10,0 0,-10z M64,24l10,0 0,10 -10,0 0,-10z M74,24l10,0 0,10 -10,0 0,-10z M84,24l10,0 0,10 -10,0 0,-10z M104,24l10,0 0,10 -10,0 0,-10z M124,24l10,0 0,10 -10,0 0,-10z M134,24l10,0 0,10 -10,0 0,-10z M154,24l10,0 0,10 -10,0 0,-10z M184,24l10,0 0,10 -10,0 0,-10z M204,24l10,0 0,10 -10,0 0,-10z M214,24l10,0 0,10 -10,0 0,-10z M224,24l10,0 0,10 -10,0 0,-10z M244,24l10,0 0,10 -10,0 0,-10z M254,24l10,0 0,10 -10,0 0,-10z M284,24l10,0 0,10 -10,0 0,-10z M294,24l10,0 0,10 -10,0 0,-10z M304,24l10,0 0,10 -10,0 0,-10z M314,24l10,0 0,10 -10,0 0,-10z M324,24l10,0 0,10 -10,0 0,-10z M334,24l10,0 0,10 -10,0 0,-10z M344,24l10,0 0,10 -10,0 0,-10z M24,34l10,0 0,10 -10,0 0,-10z M84,34l10,0 0,10 -10,0 0,-10z M104,34l10,0 0,10 -10,0 0,-10z M114,34l10,0 0,10 -10,0 0,-10z M144,34l10,0 0,10 -10,0 0,-10z M154,34l10,0 0,10 -10,0 0,-10z M184,34l10,0 0,10 -10,0 0,-10z M194,34l10,0 0,10 -10,0 0,-10z M204,34l10,0 0,10 -10,0 0,-10z M224,34l10,0 0,10 -10,0 0,-10z M234,34l10,0 0,10 -10,0 0,-10z M244,34l10,0 0,10 -10,0 0,-10z M254,34l10,0 0,10 -10,0 0,-10z M284,34l10,0 0,10 -10,0 0,-10z M344,34l10,0 0,10 -10,0 0,-10z M24,44l10,0 0,10 -10,0 0,-10z M44,44l10,0 0,10 -10,0 0,-10z M54,44l10,0 0,10 -10,0 0,-10z M64,44l10,0 0,10 -10,0 0,-10z M84,44l10,0 0,10 -10,0 0,-10z M144,44l10,0 0,10 -10,0 0,-10z M174,44l10,0 0,10 -10,0 0,-10z M224,44l10,0 0,10 -10,0 0,-10z M254,44l10,0 0,10 -10,0 0,-10z M284,44l10,0 0,10 -10,0 0,-10z M304,44l10,0 0,10 -10,0 0,-10z M314,44l10,0 0,10 -10,0 0,-10z M324,44l10,0 0,10 -10,0 0,-10z M344,44l10,0 0,10 -10,0 0,-10z M24,54l10,0 0,10 -10,0 0,-10z M44,54l10,0 0,10 -10,0 0,-10z M54,54l10,0 0,10 -10,0 0,-10z M64,54l10,0 0,10 -10,0 0,-10z M84,54l10,0 0,10 -10,0 0,-10z M104,54l10,0 0,10 -10,0 0,-10z M124,54l10,0 0,10 -10,0 0,-10z M134,54l10,0 0,10 -10,0 0,-10z M144,54l10,0 0,10 -10,0 0,-10z M164,54l10,0 0,10 -10,0 0,-10z M184,54l10,0 0,10 -10,0 0,-10z M194,54l10,0 0,10 -10,0 0,-10z M214,54l10,0 0,10 -10,0 0,-10z M224,54l10,0 0,10 -10,0 0,-10z M244,54l10,0 0,10 -10,0 0,-10z M284,54l10,0 0,10 -10,0 0,-10z M304,54l10,0 0,10 -10,0 0,-10z M314,54l10,0 0,10 -10,0 0,-10z M324,54l10,0 0,10 -10,0 0,-10z M344,54l10,0 0,10 -10,0 0,-10z M24,64l10,0 0,10 -10,0 0,-10z M44,64l10,0 0,10 -10,0 0,-10z M54,64l10,0 0,10 -10,0 0,-10z M64,64l10,0 0,10 -10,0 0,-10z M84,64l10,0 0,10 -10,0 0,-10z M164,64l10,0 0,10 -10,0 0,-10z M214,64l10,0 0,10 -10,0 0,-10z M244,64l10,0 0,10 -10,0 0,-10z M284,64l10,0 0,10 -10,0 0,-10z M304,64l10,0 0,10 -10,0 0,-10z M314,64l10,0 0,10 -10,0 0,-10z M324,64l10,0 0,10 -10,0 0,-10z M344,64l10,0 0,10 -10,0 0,-10z M24,74l10,0 0,10 -10,0 0,-10z M84,74l10,0 0,10 -10,0 0,-10z M114,74l10,0 0,10 -10,0 0,-10z M134,74l10,0 0,10 -10,0 0,-10z M154,74l10,0 0,10 -10,0 0,-10z M164,74l10,0 0,10 -10,0 0,-10z M204,74l10,0 0,10 -10,0 0,-10z M214,74l10,0 0,10 -10,0 0,-10z M224,74l10,0 0,10 -10,0 0,-10z M264,74l10,0 0,10 -10,0 0,-10z M284,74l10,0 0,10 -10,0 0,-10z M344,74l10,0 0,10 -10,0 0,-10z M24,84l10,0 0,10 -10,0 0,-10z M34,84l10,0 0,10 -10,0 0,-10z M44,84l10,0 0,10 -10,0 0,-10z M54,84l10,0 0,10 -10,0 0,-10z M64,84l10,0 0,10 -10,0 0,-10z M74,84l10,0 0,10 -10,0 0,-10z M84,84l10,0 0,10 -10,0 0,-10z M104,84l10,0 0,10 -10,0 0,-10z M124,84l10,0 0,10 -10,0 0,-10z M144,84l10,0 0,10 -10,0 0,-10z M164,84l10,0 0,10 -10,0 0,-10z M184,84l10,0 0,10 -10,0 0,-10z M204,84l10,0 0,10 -10,0 0,-10z M224,84l10,0 0,10 -10,0 0,-10z M244,84l10,0 0,10 -10,0 0,-10z M264,84l10,0 0,10 -10,0 0,-10z M284,84l10,0 0,10 -10,0 0,-10z M294,84l10,0 0,10 -10,0 0,-10z M304,84l10,0 0,10 -10,0 0,-10z M314,84l10,0 0,10 -10,0 0,-10z M324,84l10,0 0,10 -10,0 0,-10z M334,84l10,0 0,10 -10,0 0,-10z M344,84l10,0 0,10 -10,0 0,-10z M104,94l10,0 0,10 -10,0 0,-10z M124,94l10,0 0,10 -10,0 0,-10z M134,94l10,0 0,10 -10,0 0,-10z M144,94l10,0 0,10 -10,0 0,-10z M164,94l10,0 0,10 -10,0 0,-10z M194,94l10,0 0,10 -10,0 0,-10z M204,94l10,0 0,10 -10,0 0,-10z M214,94l10,0 0,10 -10,0 0,-10z M244,94l10,0 0,10 -10,0 0,-10z M264,94l10,0 0,10 -10,0 0,-10z M24,104l10,0 0,10 -10,0 0,-10z M44,104l10,0 0,10 -10,0 0,-10z M54,104l10,0 0,10 -10,0 0,-10z M74,104l10,0 0,10 -10,0 0,-10z M84,104l10,0 0,10 -10,0 0,-10z M94,104l10,0 0,10 -10,0 0,-10z M114,104l10,0 0,10 -10,0 0,-10z M144,104l10,0 0,10 -10,0 0,-10z M164,104l10,0 0,10 -10,0 0,-10z M184,104l10,0 0,10 -10,0 0,-10z M194,104l10,0 0,10 -10,0 0,-10z M204,104l10,0 0,10 -10,0 0,-10z M234,104l10,0 0,10 -10,0 0,-10z M254,104l10,0 0,10 -10,0 0,-10z M284,104l10,0 0,10 -10,0 0,-10z M314,104l10,0 0,10 -10,0 0,-10z M334,104l10,0 0,10 -10,0 0,-10z M344,104l10,0 0,10 -10,0 0,-10z M34,114l10,0 0,10 -10,0 0,-10z M44,114l10,0 0,10 -10,0 0,-10z M54,114l10,0 0,10 -10,0 0,-10z M74,114l10,0 0,10 -10,0 0,-10z M94,114l10,0 0,10 -10,0 0,-10z M104,114l10,0 0,10 -10,0 0,-10z M114,114l10,0 0,10 -10,0 0,-10z M124,114l10,0 0,10 -10,0 0,-10z M184,114l10,0 0,10 -10,0 0,-10z M194,114l10,0 0,10 -10,0 0,-10z M204,114l10,0 0,10 -10,0 0,-10z M214,114l10,0 0,10 -10,0 0,-10z M234,114l10,0 0,10 -10,0 0,-10z M244,114l10,0 0,10 -10,0 0,-10z M254,114l10,0 0,10 -10,0 0,-10z M284,114l10,0 0,10 -10,0 0,-10z M294,114l10,0 0,10 -10,0 0,-10z M314,114l10,0 0,10 -10,0 0,-10z M324,114l10,0 0,10 -10,0 0,-10z M344,114l10,0 0,10 -10,0 0,-10z M34,124l10,0 0,10 -10,0 0,-10z M44,124l10,0 0,10 -10,0 0,-10z M64,124l10,0 0,10 -10,0 0,-10z M84,124l10,0 0,10 -10,0 0,-10z M104,124l10,0 0,10 -10,0 0,-10z M144,124l10,0 0,10 -10,0 0,-10z M164,124l10,0 0,10 -10,0 0,-10z M184,124l10,0 0,10 -10,0 0,-10z M194,124l10,0 0,10 -10,0 0,-10z M254,124l10,0 0,10 -10,0 0,-10z M274,124l10,0 0,10 -10,0 0,-10z M284,124l10,0 0,10 -10,0 0,-10z M294,124l10,0 0,10 -10,0 0,-10z M304,124l10,0 0,10 -10,0 0,-10z M314,124l10,0 0,10 -10,0 0,-10z M334,124l10,0 0,10 -10,0 0,-10z M344,124l10,0 0,10 -10,0 0,-10z M24,134l10,0 0,10 -10,0 0,-10z M34,134l10,0 0,10 -10,0 0,-10z M44,134l10,0 0,10 -10,0 0,-10z M64,134l10,0 0,10 -10,0 0,-10z M74,134l10,0 0,10 -10,0 0,-10z M94,134l10,0 0,10 -10,0 0,-10z M114,134l10,0 0,10 -10,0 0,-10z M124,134l10,0 0,10 -10,0 0,-10z M154,134l10,0 0,10 -10,0 0,-10z M164,134l10,0 0,10 -10,0 0,-10z M174,134l10,0 0,10 -10,0 0,-10z M184,134l10,0 0,10 -10,0 0,-10z M204,134l10,0 0,10 -10,0 0,-10z M244,134l10,0 0,10 -10,0 0,-10z M254,134l10,0 0,10 -10,0 0,-10z M264,134l10,0 0,10 -10,0 0,-10z M274,134l10,0 0,10 -10,0 0,-10z M284,134l10,0 0,10 -10,0 0,-10z M294,134l10,0 0,10 -10,0 0,-10z M314,134l10,0 0,10 -10,0 0,-10z M334,134l10,0 0,10 -10,0 0,-10z M344,134l10,0 0,10 -10,0 0,-10z M74,144l10,0 0,10 -10,0 0,-10z M84,144l10,0 0,10 -10,0 0,-10z M94,144l10,0 0,10 -10,0 0,-10z M104,144l10,0 0,10 -10,0 0,-10z M114,144l10,0 0,10 -10,0 0,-10z M144,144l10,0 0,10 -10,0 0,-10z M174,144l10,0 0,10 -10,0 0,-10z M194,144l10,0 0,10 -10,0 0,-10z M254,144l10,0 0,10 -10,0 0,-10z M264,144l10,0 0,10 -10,0 0,-10z M274,144l10,0 0,10 -10,0 0,-10z M304,144l10,0 0,10 -10,0 0,-10z M314,144l10,0 0,10 -10,0 0,-10z M24,154l10,0 0,10 -10,0 0,-10z M34,154l10,0 0,10 -10,0 0,-10z M64,154l10,0 0,10 -10,0 0,-10z M74,154l10,0 0,10 -10,0 0,-10z M114,154l10,0 0,10 -10,0 0,-10z M124,154l10,0 0,10 -10,0 0,-10z M134,154l10,0 0,10 -10,0 0,-10z M144,154l10,0 0,10 -10,0 0,-10z M154,154l10,0 0,10 -10,0 0,-10z M184,154l10,0 0,10 -10,0 0,-10z M194,154l10,0 0,10 -10,0 0,-10z M204,154l10,0 0,10 -10,0 0,-10z M214,154l10,0 0,10 -10,0 0,-10z M244,154l10,0 0,10 -10,0 0,-10z M294,154l10,0 0,10 -10,0 0,-10z M314,154l10,0 0,10 -10,0 0,-10z M334,154l10,0 0,10 -10,0 0,-10z M34,164l10,0 0,10 -10,0 0,-10z M44,164l10,0 0,10 -10,0 0,-10z M64,164l10,0 0,10 -10,0 0,-10z M84,164l10,0 0,10 -10,0 0,-10z M94,164l10,0 0,10 -10,0 0,-10z M104,164l10,0 0,10 -10,0 0,-10z M114,164l10,0 0,10 -10,0 0,-10z M124,164l10,0 0,10 -10,0 0,-10z M134,164l10,0 0,10 -10,0 0,-10z M154,164l10,0 0,10 -10,0 0,-10z M174,164l10,0 0,10 -10,0 0,-10z M184,164l10,0 0,10 -10,0 0,-10z M204,164l10,0 0,10 -10,0 0,-10z M214,164l10,0 0,10 -10,0 0,-10z M224,164l10,0 0,10 -10,0 0,-10z M234,164l10,0 0,10 -10,0 0,-10z M244,164l10,0 0,10 -10,0 0,-10z M284,164l10,0 0,10 -10,0 0,-10z M294,164l10,0 0,10 -10,0 0,-10z M314,164l10,0 0,10 -10,0 0,-10z M34,174l10,0 0,10 -10,0 0,-10z M44,174l10,0 0,10 -10,0 0,-10z M74,174l10,0 0,10 -10,0 0,-10z M104,174l10,0 0,10 -10,0 0,-10z M114,174l10,0 0,10 -10,0 0,-10z M134,174l10,0 0,10 -10,0 0,-10z M144,174l10,0 0,10 -10,0 0,-10z M184,174l10,0 0,10 -10,0 0,-10z M204,174l10,0 0,10 -10,0 0,-10z M224,174l10,0 0,10 -10,0 0,-10z M234,174l10,0 0,10 -10,0 0,-10z M244,174l10,0 0,10 -10,0 0,-10z M254,174l10,0 0,10 -10,0 0,-10z M264,174l10,0 0,10 -10,0 0,-10z M274,174l10,0 0,10 -10,0 0,-10z M284,174l10,0 0,10 -10,0 0,-10z M304,174l10,0 0,10 -10,0 0,-10z M314,174l10,0 0,10 -10,0 0,-10z M324,174l10,0 0,10 -10,0 0,-10z M24,184l10,0 0,10 -10,0 0,-10z M44,184l10,0 0,10 -10,0 0,-10z M64,184l10,0 0,10 -10,0 0,-10z M84,184l10,0 0,10 -10,0 0,-10z M104,184l10,0 0,10 -10,0 0,-10z M124,184l10,0 0,10 -10,0 0,-10z M134,184l10,0 0,10 -10,0 0,-10z M174,184l10,0 0,10 -10,0 0,-10z M214,184l10,0 0,10 -10,0 0,-10z M234,184l10,0 0,10 -10,0 0,-10z M244,184l10,0 0,10 -10,0 0,-10z M254,184l10,0 0,10 -10,0 0,-10z M274,184l10,0 0,10 -10,0 0,-10z M284,184l10,0 0,10 -10,0 0,-10z M304,184l10,0 0,10 -10,0 0,-10z M324,184l10,0 0,10 -10,0 0,-10z M24,194l10,0 0,10 -10,0 0,-10z M104,194l10,0 0,10 -10,0 0,-10z M114,194l10,0 0,10 -10,0 0,-10z M124,194l10,0 0,10 -10,0 0,-10z M134,194l10,0 0,10 -10,0 0,-10z M164,194l10,0 0,10 -10,0 0,-10z M174,194l10,0 0,10 -10,0 0,-10z M224,194l10,0 0,10 -10,0 0,-10z M234,194l10,0 0,10 -10,0 0,-10z M244,194l10,0 0,10 -10,0 0,-10z M254,194l10,0 0,10 -10,0 0,-10z M264,194l10,0 0,10 -10,0 0,-10z M274,194l10,0 0,10 -10,0 0,-10z M284,194l10,0 0,10 -10,0 0,-10z M304,194l10,0 0,10 -10,0 0,-10z M314,194l10,0 0,10 -10,0 0,-10z M344,194l10,0 0,10 -10,0 0,-10z M34,204l10,0 0,10 -10,0 0,-10z M44,204l10,0 0,10 -10,0 0,-10z M74,204l10,0 0,10 -10,0 0,-10z M84,204l10,0 0,10 -10,0 0,-10z M94,204l10,0 0,10 -10,0 0,-10z M134,204l10,0 0,10 -10,0 0,-10z M144,204l10,0 0,10 -10,0 0,-10z M154,204l10,0 0,10 -10,0 0,-10z M174,204l10,0 0,10 -10,0 0,-10z M194,204l10,0 0,10 -10,0 0,-10z M224,204l10,0 0,10 -10,0 0,-10z M234,204l10,0 0,10 -10,0 0,-10z M244,204l10,0 0,10 -10,0 0,-10z M274,204l10,0 0,10 -10,0 0,-10z M284,204l10,0 0,10 -10,0 0,-10z M294,204l10,0 0,10 -10,0 0,-10z M304,204l10,0 0,10 -10,0 0,-10z M324,204l10,0 0,10 -10,0 0,-10z M334,204l10,0 0,10 -10,0 0,-10z M24,214l10,0 0,10 -10,0 0,-10z M34,214l10,0 0,10 -10,0 0,-10z M44,214l10,0 0,10 -10,0 0,-10z M54,214l10,0 0,10 -10,0 0,-10z M94,214l10,0 0,10 -10,0 0,-10z M114,214l10,0 0,10 -10,0 0,-10z M144,214l10,0 0,10 -10,0 0,-10z M154,214l10,0 0,10 -10,0 0,-10z M164,214l10,0 0,10 -10,0 0,-10z M174,214l10,0 0,10 -10,0 0,-10z M184,214l10,0 0,10 -10,0 0,-10z M194,214l10,0 0,10 -10,0 0,-10z M214,214l10,0 0,10 -10,0 0,-10z M224,214l10,0 0,10 -10,0 0,-10z M244,214l10,0 0,10 -10,0 0,-10z M254,214l10,0 0,10 -10,0 0,-10z M264,214l10,0 0,10 -10,0 0,-10z M274,214l10,0 0,10 -10,0 0,-10z M304,214l10,0 0,10 -10,0 0,-10z M34,224l10,0 0,10 -10,0 0,-10z M54,224l10,0 0,10 -10,0 0,-10z M64,224l10,0 0,10 -10,0 0,-10z M84,224l10,0 0,10 -10,0 0,-10z M144,224l10,0 0,10 -10,0 0,-10z M174,224l10,0 0,10 -10,0 0,-10z M194,224l10,0 0,10 -10,0 0,-10z M204,224l10,0 0,10 -10,0 0,-10z M214,224l10,0 0,10 -10,0 0,-10z M234,224l10,0 0,10 -10,0 0,-10z M264,224l10,0 0,10 -10,0 0,-10z M314,224l10,0 0,10 -10,0 0,-10z M324,224l10,0 0,10 -10,0 0,-10z M334,224l10,0 0,10 -10,0 0,-10z M24,234l10,0 0,10 -10,0 0,-10z M54,234l10,0 0,10 -10,0 0,-10z M64,234l10,0 0,10 -10,0 0,-10z M74,234l10,0 0,10 -10,0 0,-10z M104,234l10,0 0,10 -10,0 0,-10z M124,234l10,0 0,10 -10,0 0,-10z M134,234l10,0 0,10 -10,0 0,-10z M144,234l10,0 0,10 -10,0 0,-10z M164,234l10,0 0,10 -10,0 0,-10z M174,234l10,0 0,10 -10,0 0,-10z M194,234l10,0 0,10 -10,0 0,-10z M204,234l10,0 0,10 -10,0 0,-10z M214,234l10,0 0,10 -10,0 0,-10z M224,234l10,0 0,10 -10,0 0,-10z M244,234l10,0 0,10 -10,0 0,-10z M254,234l10,0 0,10 -10,0 0,-10z M274,234l10,0 0,10 -10,0 0,-10z M284,234l10,0 0,10 -10,0 0,-10z M294,234l10,0 0,10 -10,0 0,-10z M324,234l10,0 0,10 -10,0 0,-10z M344,234l10,0 0,10 -10,0 0,-10z M84,244l10,0 0,10 -10,0 0,-10z M94,244l10,0 0,10 -10,0 0,-10z M104,244l10,0 0,10 -10,0 0,-10z M114,244l10,0 0,10 -10,0 0,-10z M124,244l10,0 0,10 -10,0 0,-10z M134,244l10,0 0,10 -10,0 0,-10z M154,244l10,0 0,10 -10,0 0,-10z M164,244l10,0 0,10 -10,0 0,-10z M184,244l10,0 0,10 -10,0 0,-10z M204,244l10,0 0,10 -10,0 0,-10z M254,244l10,0 0,10 -10,0 0,-10z M264,244l10,0 0,10 -10,0 0,-10z M284,244l10,0 0,10 -10,0 0,-10z M324,244l10,0 0,10 -10,0 0,-10z M334,244l10,0 0,10 -10,0 0,-10z M344,244l10,0 0,10 -10,0 0,-10z M34,254l10,0 0,10 -10,0 0,-10z M54,254l10,0 0,10 -10,0 0,-10z M64,254l10,0 0,10 -10,0 0,-10z M134,254l10,0 0,10 -10,0 0,-10z M144,254l10,0 0,10 -10,0 0,-10z M184,254l10,0 0,10 -10,0 0,-10z M204,254l10,0 0,10 -10,0 0,-10z M214,254l10,0 0,10 -10,0 0,-10z M224,254l10,0 0,10 -10,0 0,-10z M294,254l10,0 0,10 -10,0 0,-10z M314,254l10,0 0,10 -10,0 0,-10z M334,254l10,0 0,10 -10,0 0,-10z M24,264l10,0 0,10 -10,0 0,-10z M54,264l10,0 0,10 -10,0 0,-10z M64,264l10,0 0,10 -10,0 0,-10z M84,264l10,0 0,10 -10,0 0,-10z M104,264l10,0 0,10 -10,0 0,-10z M114,264l10,0 0,10 -10,0 0,-10z M134,264l10,0 0,10 -10,0 0,-10z M174,264l10,0 0,10 -10,0 0,-10z M194,264l10,0 0,10 -10,0 0,-10z M214,264l10,0 0,10 -10,0 0,-10z M224,264l10,0 0,10 -10,0 0,-10z M244,264l10,0 0,10 -10,0 0,-10z M264,264l10,0 0,10 -10,0 0,-10z M274,264l10,0 0,10 -10,0 0,-10z M284,264l10,0 0,10 -10,0 0,-10z M294,264l10,0 0,10 -10,0 0,-10z M304,264l10,0 0,10 -10,0 0,-10z M344,264l10,0 0,10 -10,0 0,-10z M104,274l10,0 0,10 -10,0 0,-10z M114,274l10,0 0,10 -10,0 0,-10z M124,274l10,0 0,10 -10,0 0,-10z M164,274l10,0 0,10 -10,0 0,-10z M174,274l10,0 0,10 -10,0 0,-10z M184,274l10,0 0,10 -10,0 0,-10z M214,274l10,0 0,10 -10,0 0,-10z M264,274l10,0 0,10 -10,0 0,-10z M304,274l10,0 0,10 -10,0 0,-10z M314,274l10,0 0,10 -10,0 0,-10z M24,284l10,0 0,10 -10,0 0,-10z M34,284l10,0 0,10 -10,0 0,-10z M44,284l10,0 0,10 -10,0 0,-10z M54,284l10,0 0,10 -10,0 0,-10z M64,284l10,0 0,10 -10,0 0,-10z M74,284l10,0 0,10 -10,0 0,-10z M84,284l10,0 0,10 -10,0 0,-10z M104,284l10,0 0,10 -10,0 0,-10z M124,284l10,0 0,10 -10,0 0,-10z M144,284l10,0 0,10 -10,0 0,-10z M154,284l10,0 0,10 -10,0 0,-10z M194,284l10,0 0,10 -10,0 0,-10z M204,284l10,0 0,10 -10,0 0,-10z M214,284l10,0 0,10 -10,0 0,-10z M224,284l10,0 0,10 -10,0 0,-10z M244,284l10,0 0,10 -10,0 0,-10z M254,284l10,0 0,10 -10,0 0,-10z M264,284l10,0 0,10 -10,0 0,-10z M284,284l10,0 0,10 -10,0 0,-10z M304,284l10,0 0,10 -10,0 0,-10z M24,294l10,0 0,10 -10,0 0,-10z M84,294l10,0 0,10 -10,0 0,-10z M104,294l10,0 0,10 -10,0 0,-10z M124,294l10,0 0,10 -10,0 0,-10z M154,294l10,0 0,10 -10,0 0,-10z M174,294l10,0 0,10 -10,0 0,-10z M224,294l10,0 0,10 -10,0 0,-10z M234,294l10,0 0,10 -10,0 0,-10z M254,294l10,0 0,10 -10,0 0,-10z M264,294l10,0 0,10 -10,0 0,-10z M304,294l10,0 0,10 -10,0 0,-10z M314,294l10,0 0,10 -10,0 0,-10z M324,294l10,0 0,10 -10,0 0,-10z M334,294l10,0 0,10 -10,0 0,-10z M344,294l10,0 0,10 -10,0 0,-10z M24,304l10,0 0,10 -10,0 0,-10z M44,304l10,0 0,10 -10,0 0,-10z M54,304l10,0 0,10 -10,0 0,-10z M64,304l10,0 0,10 -10,0 0,-10z M84,304l10,0 0,10 -10,0 0,-10z M124,304l10,0 0,10 -10,0 0,-10z M134,304l10,0 0,10 -10,0 0,-10z M164,304l10,0 0,10 -10,0 0,-10z M194,304l10,0 0,10 -10,0 0,-10z M224,304l10,0 0,10 -10,0 0,-10z M234,304l10,0 0,10 -10,0 0,-10z M254,304l10,0 0,10 -10,0 0,-10z M264,304l10,0 0,10 -10,0 0,-10z M274,304l10,0 0,10 -10,0 0,-10z M284,304l10,0 0,10 -10,0 0,-10z M294,304l10,0 0,10 -10,0 0,-10z M304,304l10,0 0,10 -10,0 0,-10z M324,304l10,0 0,10 -10,0 0,-10z M334,304l10,0 0,10 -10,0 0,-10z M24,314l10,0 0,10 -10,0 0,-10z M44,314l10,0 0,10 -10,0 0,-10z M54,314l10,0 0,10 -10,0 0,-10z M64,314l10,0 0,10 -10,0 0,-10z M84,314l10,0 0,10 -10,0 0,-10z M104,314l10,0 0,10 -10,0 0,-10z M114,314l10,0 0,10 -10,0 0,-10z M134,314l10,0 0,10 -10,0 0,-10z M144,314l10,0 0,10 -10,0 0,-10z M154,314l10,0 0,10 -10,0 0,-10z M164,314l10,0 0,10 -10,0 0,-10z M234,314l10,0 0,10 -10,0 0,-10z M294,314l10,0 0,10 -10,0 0,-10z M324,314l10,0 0,10 -10,0 0,-10z M344,314l10,0 0,10 -10,0 0,-10z M24,324l10,0 0,10 -10,0 0,-10z M44,324l10,0 0,10 -10,0 0,-10z M54,324l10,0 0,10 -10,0 0,-10z M64,324l10,0 0,10 -10,0 0,-10z M84,324l10,0 0,10 -10,0 0,-10z M104,324l10,0 0,10 -10,0 0,-10z M114,324l10,0 0,10 -10,0 0,-10z M134,324l10,0 0,10 -10,0 0,-10z M154,324l10,0 0,10 -10,0 0,-10z M194,324l10,0 0,10 -10,0 0,-10z M204,324l10,0 0,10 -10,0 0,-10z M224,324l10,0 0,10 -10,0 0,-10z M244,324l10,0 0,10 -10,0 0,-10z M254,324l10,0 0,10 -10,0 0,-10z M284,324l10,0 0,10 -10,0 0,-10z M294,324l10,0 0,10 -10,0 0,-10z M314,324l10,0 0,10 -10,0 0,-10z M324,324l10,0 0,10 -10,0 0,-10z M24,334l10,0 0,10 -10,0 0,-10z M84,334l10,0 0,10 -10,0 0,-10z M144,334l10,0 0,10 -10,0 0,-10z M154,334l10,0 0,10 -10,0 0,-10z M164,334l10,0 0,10 -10,0 0,-10z M174,334l10,0 0,10 -10,0 0,-10z M184,334l10,0 0,10 -10,0 0,-10z M194,334l10,0 0,10 -10,0 0,-10z M224,334l10,0 0,10 -10,0 0,-10z M254,334l10,0 0,10 -10,0 0,-10z M264,334l10,0 0,10 -10,0 0,-10z M274,334l10,0 0,10 -10,0 0,-10z M284,334l10,0 0,10 -10,0 0,-10z M294,334l10,0 0,10 -10,0 0,-10z M304,334l10,0 0,10 -10,0 0,-10z M344,334l10,0 0,10 -10,0 0,-10z M24,344l10,0 0,10 -10,0 0,-10z M34,344l10,0 0,10 -10,0 0,-10z M44,344l10,0 0,10 -10,0 0,-10z M54,344l10,0 0,10 -10,0 0,-10z M64,344l10,0 0,10 -10,0 0,-10z M74,344l10,0 0,10 -10,0 0,-10z M84,344l10,0 0,10 -10,0 0,-10z M104,344l10,0 0,10 -10,0 0,-10z M124,344l10,0 0,10 -10,0 0,-10z M144,344l10,0 0,10 -10,0 0,-10z M154,344l10,0 0,10 -10,0 0,-10z M174,344l10,0 0,10 -10,0 0,-10z M184,344l10,0 0,10 -10,0 0,-10z M194,344l10,0 0,10 -10,0 0,-10z M204,344l10,0 0,10 -10,0 0,-10z M214,344l10,0 0,10 -10,0 0,-10z M234,344l10,0 0,10 -10,0 0,-10z M254,344l10,0 0,10 -10,0 0,-10z M274,344l10,0 0,10 -10,0 0,-10z M304,344l10,0 0,10 -10,0 0,-10z M324,344l10,0 0,10 -10,0 0,-10z " stroke="transparent" fill="black"/></svg>