<svg version="1.1" xmlns="http://www.w3.org/2000/svg" viewBox="0 0 418 418"  preserveAspectRatio="xMinYMin meet" role="img" aria-labelledby="qrcode-description"><rect width="100%" height="100%" fill="#ffffff"/><description id="qrcode-description">QR: https://alunbusiness.md/bancodobrasil/apresentacao/votar/?p=p1-motivo</description><rect width="100%" height="100%" fill="white" cx="0" cy="0"/><path d="M24,24l10,0 0,10 -10,0 0,-10z M34,24l10,0 0,10 -10,0 0,-10z M44,24l10,0 0,10 -10,0 0,-10z M54,24l10,0 0,10 -10,0 0,-10z M64,24l10,0 0,10 -10,0 0,-10z M74,24l10,0 0,10 -10,0 0,-10z M84,24l10,0 0,10 -10,0 0,-10z M114,24l10,0 0,10 -10,0 0,-10z M124,24l10,0 0,10 -10,0 0,-10z M134,24l10,0 0,10 -10,0 0,-10z M154,24l10,0 0,10 -10,0 0,-10z M164,24l10,0 0,10 -10,0 0,-10z M174,24l10,0 0,10 -10,0 0,-10z M184,24l10,0 0,10 -10,0 0,-10z M204,24l10,0 0,10 -10,0 0,-10z M224,24l10,0 0,10 -10,0 0,-10z M234,24l10,0 0,10 -10,0 0,-10z M244,24l10,0 0,10 -10,0 0,-10z M254,24l10,0 0,10 -10,0 0,-10z M274,24l10,0 0,10 -10,0 0,-10z M284,24l10,0 0,10 -10,0 0,-10z M304,24l10,0 0,10 -10,0 0,-10z M324,24l10,0 0,10 -10,0 0,-10z M334,24l10,0 0,10 -10,0 0,-10z M344,24l10,0 0,10 -10,0 0,-10z M354,24l10,0 0,10 -10,0 0,-10z M364,24l10,0 0,10 -10,0 0,-10z M374,24l10,0 0,10 -10,0 0,-10z M384,24l10,0 0,10 -10,0 0,-10z M24,34l10,0 0,10 -10,0 0,-10z M84,34l10,0 0,10 -10,0 0,-10z M114,34l10,0 0,10 -10,0 0,-10z M124,34l10,0 0,10 -10,0 0,-10z M144,34l10,0 0,10 -10,0 0,-10z M154,34l10,0 0,10 -10,0 0,-10z M164,34l10,0 0,10 -10,0 0,-10z M174,34l10,0 0,10 -10,0 0,-10z M184,34l10,0 0,10 -10,0 0,-10z M204,34l10,0 0,10 -10,0 0,-10z M214,34l10,0 0,10 -10,0 0,-10z M294,34l10,0 0,10 -10,0 0,-10z M304,34l10,0 0,10 -10,0 0,-10z M324,34l10,0 0,10 -10,0 0,-10z M384,34l10,0 0,10 -10,0 0,-10z M24,44l10,0 0,10 -10,0 0,-10z M44,44l10,0 0,10 -10,0 0,-10z M54,44l10,0 0,10 -10,0 0,-10z M64,44l10,0 0,10 -10,0 0,-10z M84,44l10,0 0,10 -10,0 0,-10z M104,44l10,0 0,10 -10,0 0,-10z M144,44l10,0 0,10 -10,0 0,-10z M214,44l10,0 0,10 -10,0 0,-10z M224,44l10,0 0,10 -10,0 0,-10z M234,44l10,0 0,10 -10,0 0,-10z M264,44l10,0 0,10 -10,0 0,-10z M284,44l10,0 0,10 -10,0 0,-10z M304,44l10,0 0,10 -10,0 0,-10z M324,44l10,0 0,10 -10,0 0,-10z M344,44l10,0 0,10 -10,0 0,-10z M354,44l10,0 0,10 -10,0 0,-10z M364,44l10,0 0,10 -10,0 0,-10z M384,44l10,0 0,10 -10,0 0,-10z M24,54l10,0 0,10 -10,0 0,-10z M44,54l10,0 0,10 -10,0 0,-10z M54,54l10,0 0,10 -10,0 0,-10z M64,54l10,0 0,10 -10,0 0,-10z M84,54l10,0 0,10 -10,0 0,-10z M104,54l10,0 0,10 -10,0 0,-10z M114,54l10,0 0,10 -10,0 0,-10z M124,54l10,0 0,10 -10,0 0,-10z M144,54l10,0 0,10 -10,0 0,-10z M194,54l10,0 0,10 -10,0 0,-10z M214,54l10,0 0,10 -10,0 0,-10z M244,54l10,0 0,10 -10,0 0,-10z M254,54l10,0 0,10 -10,0 0,-10z M264,54l10,0 0,10 -10,0 0,-10z M274,54l10,0 0,10 -10,0 0,-10z M284,54l10,0 0,10 -10,0 0,-10z M324,54l10,0 0,10 -10,0 0,-10z M344,54l10,0 0,10 -10,0 0,-10z M354,54l10,0 0,10 -10,0 0,-10z M364,54l10,0 0,10 -10,0 0,-10z M384,54l10,0 0,10 -10,0 0,-10z M24,64l10,0 0,10 -10,0 0,-10z M44,64l10,0 0,10 -10,0 0,-10z M54,64l10,0 0,10 -10,0 0,-10z M64,64l10,0 0,10 -10,0 0,-10z M84,64l10,0 0,10 -10,0 0,-10z M104,64l10,0 0,10 -10,0 0,-10z M134,64l10,0 0,10 -10,0 0,-10z M164,64l10,0 0,10 -10,0 0,-10z M174,64l10,0 0,10 -10,0 0,-10z M184,64l10,0 0,10 -10,0 0,-10z M214,64l10,0 0,10 -10,0 0,-10z M224,64l10,0 0,10 -10,0 0,-10z M234,64l10,0 0,10 -10,0 0,-10z M254,64l10,0 0,10 -10,0 0,-10z M304,64l10,0 0,10 -10,0 0,-10z M324,64l10,0 0,10 -10,0 0,-10z M344,64l10,0 0,10 -10,0 0,-10z M354,64l10,0 0,10 -10,0 0,-10z M364,64l10,0 0,10 -10,0 0,-10z M384,64l10,0 0,10 -10,0 0,-10z M24,74l10,0 0,10 -10,0 0,-10z M84,74l10,0 0,10 -10,0 0,-10z M104,74l10,0 0,10 -10,0 0,-10z M114,74l10,0 0,10 -10,0 0,-10z M124,74l10,0 0,10 -10,0 0,-10z M164,74l10,0 0,10 -10,0 0,-10z M184,74l10,0 0,10 -10,0 0,-10z M204,74l10,0 0,10 -10,0 0,-10z M244,74l10,0 0,10 -10,0 0,-10z M294,74l10,0 0,10 -10,0 0,-10z M304,74l10,0 0,10 -10,0 0,-10z M324,74l10,0 0,10 -10,0 0,-10z M384,74l10,0 0,10 -10,0 0,-10z M24,84l10,0 0,10 -10,0 0,-10z M34,84l10,0 0,10 -10,0 0,-10z M44,84l10,0 0,10 -10,0 0,-10z M54,84l10,0 0,10 -10,0 0,-10z M64,84l10,0 0,10 -10,0 0,-10z M74,84l10,0 0,10 -10,0 0,-10z M84,84l10,0 0,10 -10,0 0,-10z M104,84l10,0 0,10 -10,0 0,-10z M124,84l10,0 0,10 -10,0 0,-10z M144,84l10,0 0,10 -10,0 0,-10z M164,84l10,0 0,10 -10,0 0,-10z M184,84l10,0 0,10 -10,0 0,-10z M204,84l10,0 0,10 -10,0 0,-10z M224,84l10,0 0,10 -10,0 0,-10z M244,84l10,0 0,10 -10,0 0,-10z M264,84l10,0 0,10 -10,0 0,-10z M284,84l10,0 0,10 -10,0 0,-10z M304,84l10,0 0,10 -10,0 0,-10z M324,84l10,0 0,10 -10,0 0,-10z M334,84l10,0 0,10 -10,0 0,-10z M344,84l10,0 0,10 -10,0 0,-10z M354,84l10,0 0,10 -10,0 0,-10z M364,84l10,0 0,10 -10,0 0,-10z M374,84l10,0 0,10 -10,0 0,-10z M384,84l10,0 0,10 -10,0 0,-10z M104,94l10,0 0,10 -10,0 0,-10z M114,94l10,0 0,10 -10,0 0,-10z M124,94l10,0 0,10 -10,0 0,-10z M134,94l10,0 0,10 -10,0 0,-10z M164,94l10,0 0,10 -10,0 0,-10z M174,94l10,0 0,10 -10,0 0,-10z M214,94l10,0 0,10 -10,0 0,-10z M234,94l10,0 0,10 -10,0 0,-10z M254,94l10,0 0,10 -10,0 0,-10z M24,104l10,0 0,10 -10,0 0,-10z M44,104l10,0 0,10 -10,0 0,-10z M54,104l10,0 0,10 -10,0 0,-10z M64,104l10,0 0,10 -10,0 0,-10z M74,104l10,0 0,10 -10,0 0,-10z M84,104l10,0 0,10 -10,0 0,-10z M114,104l10,0 0,10 -10,0 0,-10z M124,104l10,0 0,10 -10,0 0,-10z M144,104l10,0 0,10 -10,0 0,-10z M164,104l10,0 0,10 -10,0 0,-10z M204,104l10,0 0,10 -10,0 0,-10z M224,104l10,0 0,10 -10,0 0,-10z M244,104l10,0 0,10 -10,0 0,-10z M254,104l10,0 0,10 -10,0 0,-10z M264,104l10,0 0,10 -10,0 0,-10z M274,104l10,0 0,10 -10,0 0,-10z M294,104l10,0 0,10 -10,0 0,-10z M304,104l10,0 0,10 -10,0 0,-10z M324,104l10,0 0,10 -10,0 0,-10z M334,104l10,0 0,10 -10,0 0,-10z M344,104l10,0 0,10 -10,0 0,-10z M354,104l10,0 0,10 -10,0 0,-10z M364,104l10,0 0,10 -10,0 0,-10z M64,114l10,0 0,10 -10,0 0,-10z M94,114l10,0 0,10 -10,0 0,-10z M164,114l10,0 0,10 -10,0 0,-10z M174,114l10,0 0,10 -10,0 0,-10z M184,114l10,0 0,10 -10,0 0,-10z M234,114l10,0 0,10 -10,0 0,-10z M254,114l10,0 0,10 -10,0 0,-10z M274,114l10,0 0,10 -10,0 0,-10z M284,114l10,0 0,10 -10,0 0,-10z M314,114l10,0 0,10 -10,0 0,-10z M334,114l10,0 0,10 -10,0 0,-10z M364,114l10,0 0,10 -10,0 0,-10z M374,114l10,0 0,10 -10,0 0,-10z M34,124l10,0 0,10 -10,0 0,-10z M64,124l10,0 0,10 -10,0 0,-10z M74,124l10,0 0,10 -10,0 0,-10z M84,124l10,0 0,10 -10,0 0,-10z M94,124l10,0 0,10 -10,0 0,-10z M114,124l10,0 0,10 -10,0 0,-10z M124,124l10,0 0,10 -10,0 0,-10z M134,124l10,0 0,10 -10,0 0,-10z M144,124l10,0 0,10 -10,0 0,-10z M154,124l10,0 0,10 -10,0 0,-10z M194,124l10,0 0,10 -10,0 0,-10z M204,124l10,0 0,10 -10,0 0,-10z M224,124l10,0 0,10 -10,0 0,-10z M234,124l10,0 0,10 -10,0 0,-10z M264,124l10,0 0,10 -10,0 0,-10z M274,124l10,0 0,10 -10,0 0,-10z M284,124l10,0 0,10 -10,0 0,-10z M294,124l10,0 0,10 -10,0 0,-10z M304,124l10,0 0,10 -10,0 0,-10z M324,124l10,0 0,10 -10,0 0,-10z M334,124l10,0 0,10 -10,0 0,-10z M344,124l10,0 0,10 -10,0 0,-10z M354,124l10,0 0,10 -10,0 0,-10z M364,124l10,0 0,10 -10,0 0,-10z M374,124l10,0 0,10 -10,0 0,-10z M384,124l10,0 0,10 -10,0 0,-10z M44,134l10,0 0,10 -10,0 0,-10z M64,134l10,0 0,10 -10,0 0,-10z M94,134l10,0 0,10 -10,0 0,-10z M124,134l10,0 0,10 -10,0 0,-10z M144,134l10,0 0,10 -10,0 0,-10z M184,134l10,0 0,10 -10,0 0,-10z M234,134l10,0 0,10 -10,0 0,-10z M244,134l10,0 0,10 -10,0 0,-10z M304,134l10,0 0,10 -10,0 0,-10z M314,134l10,0 0,10 -10,0 0,-10z M324,134l10,0 0,10 -10,0 0,-10z M334,134l10,0 0,10 -10,0 0,-10z M344,134l10,0 0,10 -10,0 0,-10z M384,134l10,0 0,10 -10,0 0,-10z M24,144l10,0 0,10 -10,0 0,-10z M34,144l10,0 0,10 -10,0 0,-10z M44,144l10,0 0,10 -10,0 0,-10z M54,144l10,0 0,10 -10,0 0,-10z M74,144l10,0 0,10 -10,0 0,-10z M84,144l10,0 0,10 -10,0 0,-10z M94,144l10,0 0,10 -10,0 0,-10z M114,144l10,0 0,10 -10,0 0,-10z M134,144l10,0 0,10 -10,0 0,-10z M144,144l10,0 0,10 -10,0 0,-10z M154,144l10,0 0,10 -10,0 0,-10z M164,144l10,0 0,10 -10,0 0,-10z M194,144l10,0 0,10 -10,0 0,-10z M224,144l10,0 0,10 -10,0 0,-10z M244,144l10,0 0,10 -10,0 0,-10z M264,144l10,0 0,10 -10,0 0,-10z M274,144l10,0 0,10 -10,0 0,-10z M284,144l10,0 0,10 -10,0 0,-10z M304,144l10,0 0,10 -10,0 0,-10z M314,144l10,0 0,10 -10,0 0,-10z M324,144l10,0 0,10 -10,0 0,-10z M344,144l10,0 0,10 -10,0 0,-10z M364,144l10,0 0,10 -10,0 0,-10z M374,144l10,0 0,10 -10,0 0,-10z M384,144l10,0 0,10 -10,0 0,-10z M134,154l10,0 0,10 -10,0 0,-10z M144,154l10,0 0,10 -10,0 0,-10z M154,154l10,0 0,10 -10,0 0,-10z M164,154l10,0 0,10 -10,0 0,-10z M184,154l10,0 0,10 -10,0 0,-10z M194,154l10,0 0,10 -10,0 0,-10z M204,154l10,0 0,10 -10,0 0,-10z M214,154l10,0 0,10 -10,0 0,-10z M224,154l10,0 0,10 -10,0 0,-10z M254,154l10,0 0,10 -10,0 0,-10z M264,154l10,0 0,10 -10,0 0,-10z M274,154l10,0 0,10 -10,0 0,-10z M304,154l10,0 0,10 -10,0 0,-10z M334,154l10,0 0,10 -10,0 0,-10z M24,164l10,0 0,10 -10,0 0,-10z M44,164l10,0 0,10 -10,0 0,-10z M64,164l10,0 0,10 -10,0 0,-10z M84,164l10,0 0,10 -10,0 0,-10z M114,164l10,0 0,10 -10,0 0,-10z M144,164l10,0 0,10 -10,0 0,-10z M164,164l10,0 0,10 -10,0 0,-10z M174,164l10,0 0,10 -10,0 0,-10z M194,164l10,0 0,10 -10,0 0,-10z M244,164l10,0 0,10 -10,0 0,-10z M264,164l10,0 0,10 -10,0 0,-10z M284,164l10,0 0,10 -10,0 0,-10z M294,164l10,0 0,10 -10,0 0,-10z M304,164l10,0 0,10 -10,0 0,-10z M314,164l10,0 0,10 -10,0 0,-10z M324,164l10,0 0,10 -10,0 0,-10z M334,164l10,0 0,10 -10,0 0,-10z M344,164l10,0 0,10 -10,0 0,-10z M354,164l10,0 0,10 -10,0 0,-10z M374,164l10,0 0,10 -10,0 0,-10z M384,164l10,0 0,10 -10,0 0,-10z M24,174l10,0 0,10 -10,0 0,-10z M64,174l10,0 0,10 -10,0 0,-10z M94,174l10,0 0,10 -10,0 0,-10z M104,174l10,0 0,10 -10,0 0,-10z M114,174l10,0 0,10 -10,0 0,-10z M144,174l10,0 0,10 -10,0 0,-10z M154,174l10,0 0,10 -10,0 0,-10z M194,174l10,0 0,10 -10,0 0,-10z M204,174l10,0 0,10 -10,0 0,-10z M214,174l10,0 0,10 -10,0 0,-10z M234,174l10,0 0,10 -10,0 0,-10z M244,174l10,0 0,10 -10,0 0,-10z M284,174l10,0 0,10 -10,0 0,-10z M294,174l10,0 0,10 -10,0 0,-10z M304,174l10,0 0,10 -10,0 0,-10z M334,174l10,0 0,10 -10,0 0,-10z M344,174l10,0 0,10 -10,0 0,-10z M374,174l10,0 0,10 -10,0 0,-10z M384,174l10,0 0,10 -10,0 0,-10z M54,184l10,0 0,10 -10,0 0,-10z M64,184l10,0 0,10 -10,0 0,-10z M84,184l10,0 0,10 -10,0 0,-10z M124,184l10,0 0,10 -10,0 0,-10z M134,184l10,0 0,10 -10,0 0,-10z M174,184l10,0 0,10 -10,0 0,-10z M184,184l10,0 0,10 -10,0 0,-10z M234,184l10,0 0,10 -10,0 0,-10z M274,184l10,0 0,10 -10,0 0,-10z M284,184l10,0 0,10 -10,0 0,-10z M294,184l10,0 0,10 -10,0 0,-10z M314,184l10,0 0,10 -10,0 0,-10z M324,184l10,0 0,10 -10,0 0,-10z M344,184l10,0 0,10 -10,0 0,-10z M364,184l10,0 0,10 -10,0 0,-10z M374,184l10,0 0,10 -10,0 0,-10z M384,184l10,0 0,10 -10,0 0,-10z M24,194l10,0 0,10 -10,0 0,-10z M34,194l10,0 0,10 -10,0 0,-10z M64,194l10,0 0,10 -10,0 0,-10z M104,194l10,0 0,10 -10,0 0,-10z M124,194l10,0 0,10 -10,0 0,-10z M154,194l10,0 0,10 -10,0 0,-10z M164,194l10,0 0,10 -10,0 0,-10z M174,194l10,0 0,10 -10,0 0,-10z M194,194l10,0 0,10 -10,0 0,-10z M204,194l10,0 0,10 -10,0 0,-10z M224,194l10,0 0,10 -10,0 0,-10z M254,194l10,0 0,10 -10,0 0,-10z M284,194l10,0 0,10 -10,0 0,-10z M374,194l10,0 0,10 -10,0 0,-10z M54,204l10,0 0,10 -10,0 0,-10z M64,204l10,0 0,10 -10,0 0,-10z M74,204l10,0 0,10 -10,0 0,-10z M84,204l10,0 0,10 -10,0 0,-10z M94,204l10,0 0,10 -10,0 0,-10z M104,204l10,0 0,10 -10,0 0,-10z M144,204l10,0 0,10 -10,0 0,-10z M174,204l10,0 0,10 -10,0 0,-10z M184,204l10,0 0,10 -10,0 0,-10z M204,204l10,0 0,10 -10,0 0,-10z M214,204l10,0 0,10 -10,0 0,-10z M244,204l10,0 0,10 -10,0 0,-10z M284,204l10,0 0,10 -10,0 0,-10z M294,204l10,0 0,10 -10,0 0,-10z M314,204l10,0 0,10 -10,0 0,-10z M334,204l10,0 0,10 -10,0 0,-10z M344,204l10,0 0,10 -10,0 0,-10z M354,204l10,0 0,10 -10,0 0,-10z M374,204l10,0 0,10 -10,0 0,-10z M384,204l10,0 0,10 -10,0 0,-10z M44,214l10,0 0,10 -10,0 0,-10z M64,214l10,0 0,10 -10,0 0,-10z M74,214l10,0 0,10 -10,0 0,-10z M94,214l10,0 0,10 -10,0 0,-10z M114,214l10,0 0,10 -10,0 0,-10z M134,214l10,0 0,10 -10,0 0,-10z M164,214l10,0 0,10 -10,0 0,-10z M174,214l10,0 0,10 -10,0 0,-10z M214,214l10,0 0,10 -10,0 0,-10z M224,214l10,0 0,10 -10,0 0,-10z M234,214l10,0 0,10 -10,0 0,-10z M254,214l10,0 0,10 -10,0 0,-10z M284,214l10,0 0,10 -10,0 0,-10z M324,214l10,0 0,10 -10,0 0,-10z M334,214l10,0 0,10 -10,0 0,-10z M344,214l10,0 0,10 -10,0 0,-10z M384,214l10,0 0,10 -10,0 0,-10z M24,224l10,0 0,10 -10,0 0,-10z M44,224l10,0 0,10 -10,0 0,-10z M74,224l10,0 0,10 -10,0 0,-10z M84,224l10,0 0,10 -10,0 0,-10z M134,224l10,0 0,10 -10,0 0,-10z M144,224l10,0 0,10 -10,0 0,-10z M174,224l10,0 0,10 -10,0 0,-10z M184,224l10,0 0,10 -10,0 0,-10z M194,224l10,0 0,10 -10,0 0,-10z M214,224l10,0 0,10 -10,0 0,-10z M244,224l10,0 0,10 -10,0 0,-10z M254,224l10,0 0,10 -10,0 0,-10z M264,224l10,0 0,10 -10,0 0,-10z M274,224l10,0 0,10 -10,0 0,-10z M284,224l10,0 0,10 -10,0 0,-10z M294,224l10,0 0,10 -10,0 0,-10z M304,224l10,0 0,10 -10,0 0,-10z M314,224l10,0 0,10 -10,0 0,-10z M324,224l10,0 0,10 -10,0 0,-10z M344,224l10,0 0,10 -10,0 0,-10z M354,224l10,0 0,10 -10,0 0,-10z M364,224l10,0 0,10 -10,0 0,-10z M24,234l10,0 0,10 -10,0 0,-10z M34,234l10,0 0,10 -10,0 0,-10z M74,234l10,0 0,10 -10,0 0,-10z M114,234l10,0 0,10 -10,0 0,-10z M124,234l10,0 0,10 -10,0 0,-10z M154,234l10,0 0,10 -10,0 0,-10z M164,234l10,0 0,10 -10,0 0,-10z M184,234l10,0 0,10 -10,0 0,-10z M204,234l10,0 0,10 -10,0 0,-10z M214,234l10,0 0,10 -10,0 0,-10z M224,234l10,0 0,10 -10,0 0,-10z M254,234l10,0 0,10 -10,0 0,-10z M284,234l10,0 0,10 -10,0 0,-10z M304,234l10,0 0,10 -10,0 0,-10z M314,234l10,0 0,10 -10,0 0,-10z M354,234l10,0 0,10 -10,0 0,-10z M24,244l10,0 0,10 -10,0 0,-10z M34,244l10,0 0,10 -10,0 0,-10z M84,244l10,0 0,10 -10,0 0,-10z M124,244l10,0 0,10 -10,0 0,-10z M174,244l10,0 0,10 -10,0 0,-10z M204,244l10,0 0,10 -10,0 0,-10z M224,244l10,0 0,10 -10,0 0,-10z M244,244l10,0 0,10 -10,0 0,-10z M294,244l10,0 0,10 -10,0 0,-10z M314,244l10,0 0,10 -10,0 0,-10z M334,244l10,0 0,10 -10,0 0,-10z M344,244l10,0 0,10 -10,0 0,-10z M354,244l10,0 0,10 -10,0 0,-10z M374,244l10,0 0,10 -10,0 0,-10z M384,244l10,0 0,10 -10,0 0,-10z M34,254l10,0 0,10 -10,0 0,-10z M104,254l10,0 0,10 -10,0 0,-10z M124,254l10,0 0,10 -10,0 0,-10z M144,254l10,0 0,10 -10,0 0,-10z M154,254l10,0 0,10 -10,0 0,-10z M164,254l10,0 0,10 -10,0 0,-10z M174,254l10,0 0,10 -10,0 0,-10z M214,254l10,0 0,10 -10,0 0,-10z M224,254l10,0 0,10 -10,0 0,-10z M314,254l10,0 0,10 -10,0 0,-10z M334,254l10,0 0,10 -10,0 0,-10z M344,254l10,0 0,10 -10,0 0,-10z M374,254l10,0 0,10 -10,0 0,-10z M34,264l10,0 0,10 -10,0 0,-10z M84,264l10,0 0,10 -10,0 0,-10z M114,264l10,0 0,10 -10,0 0,-10z M124,264l10,0 0,10 -10,0 0,-10z M134,264l10,0 0,10 -10,0 0,-10z M154,264l10,0 0,10 -10,0 0,-10z M164,264l10,0 0,10 -10,0 0,-10z M174,264l10,0 0,10 -10,0 0,-10z M204,264l10,0 0,10 -10,0 0,-10z M214,264l10,0 0,10 -10,0 0,-10z M224,264l10,0 0,10 -10,0 0,-10z M234,264l10,0 0,10 -10,0 0,-10z M244,264l10,0 0,10 -10,0 0,-10z M254,264l10,0 0,10 -10,0 0,-10z M264,264l10,0 0,10 -10,0 0,-10z M274,264l10,0 0,10 -10,0 0,-10z M294,264l10,0 0,10 -10,0 0,-10z M304,264l10,0 0,10 -10,0 0,-10z M314,264l10,0 0,10 -10,0 0,-10z M324,264l10,0 0,10 -10,0 0,-10z M344,264l10,0 0,10 -10,0 0,-10z M364,264l10,0 0,10 -10,0 0,-10z M384,264l10,0 0,10 -10,0 0,-10z M24,274l10,0 0,10 -10,0 0,-10z M34,274l10,0 0,10 -10,0 0,-10z M44,274l10,0 0,10 -10,0 0,-10z M54,274l10,0 0,10 -10,0 0,-10z M64,274l10,0 0,10 -10,0 0,-10z M74,274l10,0 0,10 -10,0 0,-10z M94,274l10,0 0,10 -10,0 0,-10z M104,274l10,0 0,10 -10,0 0,-10z M124,274l10,0 0,10 -10,0 0,-10z M134,274l10,0 0,10 -10,0 0,-10z M164,274l10,0 0,10 -10,0 0,-10z M174,274l10,0 0,10 -10,0 0,-10z M184,274l10,0 0,10 -10,0 0,-10z M194,274l10,0 0,10 -10,0 0,-10z M234,274l10,0 0,10 -10,0 0,-10z M254,274l10,0 0,10 -10,0 0,-10z M284,274l10,0 0,10 -10,0 0,-10z M304,274l10,0 0,10 -10,0 0,-10z M314,274l10,0 0,10 -10,0 0,-10z M334,274l10,0 0,10 -10,0 0,-10z M354,274l10,0 0,10 -10,0 0,-10z M24,284l10,0 0,10 -10,0 0,-10z M44,284l10,0 0,10 -10,0 0,-10z M64,284l10,0 0,10 -10,0 0,-10z M74,284l10,0 0,10 -10,0 0,-10z M84,284l10,0 0,10 -10,0 0,-10z M114,284l10,0 0,10 -10,0 0,-10z M124,284l10,0 0,10 -10,0 0,-10z M224,284l10,0 0,10 -10,0 0,-10z M274,284l10,0 0,10 -10,0 0,-10z M294,284l10,0 0,10 -10,0 0,-10z M304,284l10,0 0,10 -10,0 0,-10z M314,284l10,0 0,10 -10,0 0,-10z M324,284l10,0 0,10 -10,0 0,-10z M334,284l10,0 0,10 -10,0 0,-10z M374,284l10,0 0,10 -10,0 0,-10z M384,284l10,0 0,10 -10,0 0,-10z M24,294l10,0 0,10 -10,0 0,-10z M104,294l10,0 0,10 -10,0 0,-10z M144,294l10,0 0,10 -10,0 0,-10z M184,294l10,0 0,10 -10,0 0,-10z M204,294l10,0 0,10 -10,0 0,-10z M234,294l10,0 0,10 -10,0 0,-10z M244,294l10,0 0,10 -10,0 0,-10z M284,294l10,0 0,10 -10,0 0,-10z M294,294l10,0 0,10 -10,0 0,-10z M314,294l10,0 0,10 -10,0 0,-10z M324,294l10,0 0,10 -10,0 0,-10z M374,294l10,0 0,10 -10,0 0,-10z M384,294l10,0 0,10 -10,0 0,-10z M24,304l10,0 0,10 -10,0 0,-10z M44,304l10,0 0,10 -10,0 0,-10z M54,304l10,0 0,10 -10,0 0,-10z M64,304l10,0 0,10 -10,0 0,-10z M84,304l10,0 0,10 -10,0 0,-10z M104,304l10,0 0,10 -10,0 0,-10z M114,304l10,0 0,10 -10,0 0,-10z M124,304l10,0 0,10 -10,0 0,-10z M134,304l10,0 0,10 -10,0 0,-10z M164,304l10,0 0,10 -10,0 0,-10z M184,304l10,0 0,10 -10,0 0,-10z M194,304l10,0 0,10 -10,0 0,-10z M204,304l10,0 0,10 -10,0 0,-10z M244,304l10,0 0,10 -10,0 0,-10z M254,304l10,0 0,10 -10,0 0,-10z M264,304l10,0 0,10 -10,0 0,-10z M274,304l10,0 0,10 -10,0 0,-10z M284,304l10,0 0,10 -10,0 0,-10z M294,304l10,0 0,10 -10,0 0,-10z M304,304l10,0 0,10 -10,0 0,-10z M314,304l10,0 0,10 -10,0 0,-10z M324,304l10,0 0,10 -10,0 0,-10z M334,304l10,0 0,10 -10,0 0,-10z M344,304l10,0 0,10 -10,0 0,-10z M354,304l10,0 0,10 -10,0 0,-10z M364,304l10,0 0,10 -10,0 0,-10z M374,304l10,0 0,10 -10,0 0,-10z M384,304l10,0 0,10 -10,0 0,-10z M104,314l10,0 0,10 -10,0 0,-10z M114,314l10,0 0,10 -10,0 0,-10z M134,314l10,0 0,10 -10,0 0,-10z M154,314l10,0 0,10 -10,0 0,-10z M184,314l10,0 0,10 -10,0 0,-10z M194,314l10,0 0,10 -10,0 0,-10z M204,314l10,0 0,10 -10,0 0,-10z M214,314l10,0 0,10 -10,0 0,-10z M224,314l10,0 0,10 -10,0 0,-10z M234,314l10,0 0,10 -10,0 0,-10z M254,314l10,0 0,10 -10,0 0,-10z M284,314l10,0 0,10 -10,0 0,-10z M294,314l10,0 0,10 -10,0 0,-10z M304,314l10,0 0,10 -10,0 0,-10z M344,314l10,0 0,10 -10,0 0,-10z M354,314l10,0 0,10 -10,0 0,-10z M374,314l10,0 0,10 -10,0 0,-10z M24,324l10,0 0,10 -10,0 0,-10z M34,324l10,0 0,10 -10,0 0,-10z M44,324l10,0 0,10 -10,0 0,-10z M54,324l10,0 0,10 -10,0 0,-10z M64,324l10,0 0,10 -10,0 0,-10z M74,324l10,0 0,10 -10,0 0,-10z M84,324l10,0 0,10 -10,0 0,-10z M114,324l10,0 0,10 -10,0 0,-10z M124,324l10,0 0,10 -10,0 0,-10z M144,324l10,0 0,10 -10,0 0,-10z M164,324l10,0 0,10 -10,0 0,-10z M174,324l10,0 0,10 -10,0 0,-10z M184,324l10,0 0,10 -10,0 0,-10z M194,324l10,0 0,10 -10,0 0,-10z M234,324l10,0 0,10 -10,0 0,-10z M264,324l10,0 0,10 -10,0 0,-10z M304,324l10,0 0,10 -10,0 0,-10z M324,324l10,0 0,10 -10,0 0,-10z M344,324l10,0 0,10 -10,0 0,-10z M364,324l10,0 0,10 -10,0 0,-10z M374,324l10,0 0,10 -10,0 0,-10z M384,324l10,0 0,10 -10,0 0,-10z M24,334l10,0 0,10 -10,0 0,-10z M84,334l10,0 0,10 -10,0 0,-10z M104,334l10,0 0,10 -10,0 0,-10z M114,334l10,0 0,10 -10,0 0,-10z M154,334l10,0 0,10 -10,0 0,-10z M174,334l10,0 0,10 -10,0 0,-10z M194,334l10,0 0,10 -10,0 0,-10z M204,334l10,0 0,10 -10,0 0,-10z M224,334l10,0 0,10 -10,0 0,-10z M234,334l10,0 0,10 -10,0 0,-10z M244,334l10,0 0,10 -10,0 0,-10z M254,334l10,0 0,10 -10,0 0,-10z M284,334l10,0 0,10 -10,0 0,-10z M304,334l10,0 0,10 -10,0 0,-10z M344,334l10,0 0,10 -10,0 0,-10z M354,334l10,0 0,10 -10,0 0,-10z M374,334l10,0 0,10 -10,0 0,-10z M384,334l10,0 0,10 -10,0 0,-10z M24,344l10,0 0,10 -10,0 0,-10z M44,344l10,0 0,10 -10,0 0,-10z M54,344l10,0 0,10 -10,0 0,-10z M64,344l10,0 0,10 -10,0 0,-10z M84,344l10,0 0,10 -10,0 0,-10z M104,344l10,0 0,10 -10,0 0,-10z M114,344l10,0 0,10 -10,0 0,-10z M134,344l10,0 0,10 -10,0 0,-10z M144,344l10,0 0,10 -10,0 0,-10z M174,344l10,0 0,10 -10,0 0,-10z M184,344l10,0 0,10 -10,0 0,-10z M234,344l10,0 0,10 -10,0 0,-10z M254,344l10,0 0,10 -10,0 0,-10z M264,344l10,0 0,10 -10,0 0,-10z M274,344l10,0 0,10 -10,0 0,-10z M294,344l10,0 0,10 -10,0 0,-10z M304,344l10,0 0,10 -10,0 0,-10z M314,344l10,0 0,10 -10,0 0,-10z M324,344l10,0 0,10 -10,0 0,-10z M334,344l10,0 0,10 -10,0 0,-10z M344,344l10,0 0,10 -10,0 0,-10z M364,344l10,0 0,10 -10,0 0,-10z M374,344l10,0 0,10 -10,0 0,-10z M384,344l10,0 0,10 -10,0 0,-10z M24,354l10,0 0,10 -10,0 0,-10z M44,354l10,0 0,10 -10,0 0,-10z M54,354l10,0 0,10 -10,0 0,-10z M64,354l10,0 0,10 -10,0 0,-10z M84,354l10,0 0,10 -10,0 0,-10z M104,354l10,0 0,10 -10,0 0,-10z M134,354l10,0 0,10 -10,0 0,-10z M144,354l10,0 0,10 -10,0 0,-10z M154,354l10,0 0,10 -10,0 0,-10z M174,354l10,0 0,10 -10,0 0,-10z M194,354l10,0 0,10 -10,0 0,-10z M204,354l10,0 0,10 -10,0 0,-10z M224,354l10,0 0,10 -10,0 0,-10z M244,354l10,0 0,10 -10,0 0,-10z M254,354l10,0 0,10 -10,0 0,-10z M294,354l10,0 0,10 -10,0 0,-10z M304,354l10,0 0,10 -10,0 0,-10z M314,354l10,0 0,10 -10,0 0,-10z M324,354l10,0 0,10 -10,0 0,-10z M344,354l10,0 0,10 -10,0 0,-10z M354,354l10,0 0,10 -10,0 0,-10z M384,354l10,0 0,10 -10,0 0,-10z M24,364l10,0 0,10 -10,0 0,-10z M44,364l10,0 0,10 -10,0 0,-10z M54,364l10,0 0,10 -10,0 0,-10z M64,364l10,0 0,10 -10,0 0,-10z M84,364l10,0 0,10 -10,0 0,-10z M104,364l10,0 0,10 -10,0 0,-10z M144,364l10,0 0,10 -10,0 0,-10z M154,364l10,0 0,10 -10,0 0,-10z M174,364l10,0 0,10 -10,0 0,-10z M184,364l10,0 0,10 -10,0 0,-10z M194,364l10,0 0,10 -10,0 0,-10z M214,364l10,0 0,10 -10,0 0,-10z M244,364l10,0 0,10 -10,0 0,-10z M274,364l10,0 0,10 -10,0 0,-10z M304,364l10,0 0,10 -10,0 0,-10z M364,364l10,0 0,10 -10,0 0,-10z M374,364l10,0 0,10 -10,0 0,-10z M384,364l10,0 0,10 -10,0 0,-10z M24,374l10,0 0,10 -10,0 0,-10z M84,374l10,0 0,10 -10,0 0,-10z M134,374l10,0 0,10 -10,0 0,-10z M144,374l10,0 0,10 -10,0 0,-10z M164,374l10,0 0,10 -10,0 0,-10z M174,374l10,0 0,10 -10,0 0,-10z M214,374l10,0 0,10 -10,0 0,-10z M224,374l10,0 0,10 -10,0 0,-10z M234,374l10,0 0,10 -10,0 0,-10z M244,374l10,0 0,10 -10,0 0,-10z M284,374l10,0 0,10 -10,0 0,-10z M294,374l10,0 0,10 -10,0 0,-10z M304,374l10,0 0,10 -10,0 0,-10z M314,374l10,0 0,10 -10,0 0,-10z M324,374l10,0 0,10 -10,0 0,-10z M344,374l10,0 0,10 -10,0 0,-10z M384,374l10,0 0,10 -10,0 0,-10z M24,384l10,0 0,10 -10,0 0,-10z M34,384l10,0 0,10 -10,0 0,-10z M44,384l10,0 0,10 -10,0 0,-10z M54,384l10,0 0,10 -10,0 0,-10z M64,384l10,0 0,10 -10,0 0,-10z M74,384l10,0 0,10 -10,0 0,-10z M84,384l10,0 0,10 -10,0 0,-10z M104,384l10,0 0,10 -10,0 0,-10z M114,384l10,0 0,10 -10,0 0,-10z M124,384l10,0 0,10 -10,0 0,-10z M164,384l10,0 0,10 -10,0 0,-10z M174,384l10,0 0,10 -10,0 0,-10z M194,384l10,0 0,10 -10,0 0,-10z M214,384l10,0 0,10 -10,0 0,-10z M244,384l10,0 0,10 -10,0 0,-10z M254,384l10,0 0,10 -10,0 0,-10z M264,384l10,0 0,10 -10,0 0,-10z M274,384l10,0 0,10 -10,0 0,-10z M324,384l10,0 0,10 -10,0 0,-10z M344,384l10,0 0,10 -10,0 0,-10z M354,384l10,0 0,10 -10,0 0,-10z M364,384l10,0 0,10 -10,0 0,-10z M374,384l10,0 0,10 -10,0 0,-10z M384,384l10,0 0,10 -10,0 0,-10z " stroke="transparent" fill="black"/></svg>